<svg xmlns="http://www.w3.org/2000/svg" width="72" height="72" viewBox="0 0 72 72" fill="black"><path d="M21 31L21 31C21 34 23 37 26 39L26 39C27 39 28 40 28 41L28 41C30 44 33 45 36 45L36 45C37 45 38 45 39 46 42 48 45 48 48 46 49 45 50 45 51 45L51 45C54 45 57 44 59 41L59 41C59 40 60 39 61 39L61 39C64 37 66 34 66 31L66 31C66 30 66 29 67 28 68 26 68 22 67 20 66 19 66 18 66 16L66 16C66 13 64 10 61 9L61 9C60 8 59 8 59 7L59 7C57 4 54 2 51 2L51 2C50 2 49 2 48 2H48C45 0 42 0 39 2 38 2 37 2 36 2L36 2C33 2 30 4 28 7L28 7C28 8 27 8 26 9L26 9C23 10 21 13 21 16L21 16C21 18 21 19 20 20 19 22 19 26 20 28 21 29 21 30 21 31ZM23 21C24 20 24 18 24 16L24 16C24 14 25 12 27 11L27 11C28 11 30 9 31 8L31 8C32 6 34 5 36 5L36 5C37 5 39 5 41 4 42 3 45 3 47 4 48 5 50 5 51 5L51 5C54 5 56 6 57 8L57 8C57 9 59 11 60 11L60 11C62 12 63 14 63 16L63 16C63 18 63 20 64 21 66 23 66 25 64 27 63 28 63 30 63 31L63 31C63 33 62 35 60 36L60 36C59 37 57 38 57 40L57 40C56 42 54 43 51 43L51 43C50 42 48 43 47 44 45 45 42 45 41 44 39 43 38 43 36 43 36 43 36 43 36 43L36 43C34 43 32 42 31 40L31 40C30 38 28 37 27 36L27 36C25 35 24 33 24 31L24 31C24 30 24 28 23 27 22 25 22 23 23 21V21Z"/><path d="M35 38C36 38 36 38 37 37L53 12C53 11 53 11 53 10 52 10 52 10 52 10 51 10 51 10 50 10L34 36C34 36 34 37 35 38Z"/><path d="M36 24C40 24 42 21 42 17 42 13 40 10 36 10 33 10 30 13 30 17 30 21 33 24 36 24ZM36 13C38 13 40 15 40 17 40 19 38 21 36 21 35 21 33 19 33 17 33 15 35 13 36 13Z"/><path d="M45 31C45 34 48 37 51 37 54 37 57 34 57 31 57 27 54 24 51 24 48 24 45 27 45 31ZM54 31C54 33 53 35 51 35 49 35 48 33 48 31 48 28 49 26 51 26 53 26 54 28 54 31Z"/><path d="M72 53C70 50 66 48 63 50L52 55C51 52 48 51 45 51L35 50C34 50 32 50 31 49L30 49C25 46 19 46 14 49L14 46C14 46 13 45 13 45L2 45C1 45 1 45 1 46L0 69C0 70 1 71 1 71L12 71H12C13 71 13 70 13 70L13 69 16 67C17 67 18 66 20 67L36 71C36 71 36 71 36 71 37 72 39 72 40 72 42 72 45 71 47 70 47 70 47 70 47 70L71 55C72 54 72 53 72 53ZM3 68L3 47 11 48 11 68 3 68ZM46 68C43 69 40 69 37 69L20 64C19 64 17 64 15 65L13 66 14 52C18 49 24 49 29 51L30 51C31 52 33 53 35 53L45 53C48 53 50 55 51 58L36 57C35 57 35 58 35 59 35 60 35 60 36 60L52 61H52C53 61 53 60 53 59 53 59 53 58 53 58L64 52 64 52C66 52 67 52 69 53L46 68Z"/></svg>