<svg xmlns="http://www.w3.org/2000/svg" width="72" height="72" viewBox="0 0 72 72" fill="black"><path d="M36 19L45 12H56V0H28V12H36V19ZM30 9V2H53V9H44L38 14V9H30Z"/><path d="M33 5H35V7H33V5Z"/><path d="M37 5H46V7H37V5Z"/><path d="M49 5H51V7H49V5Z"/><path d="M59 70L58 60C62 60 65 56 65 52V37H60V36C60 34 60 33 58 32 60 31 60 29 60 27V24C60 21 57 17 53 17 50 17 46 21 46 24V27C46 30 48 32 51 33L45 39H38C38 38 37 36 35 35L30 34V32C32 31 33 29 33 27V24C33 21 29 17 26 17 22 17 19 21 19 24V27C19 29 19 31 21 32V34L16 35C14 36 13 38 13 40V44H8V51H10V70H0V72H72V70H59ZM49 51V46L57 38C58 37 58 36 58 35 58 35 58 35 58 36V50C58 52 57 53 55 53H45V51H49ZM45 60H51L52 70H45V60ZM54 60H56L57 70H54L54 60ZM60 50V39H63V52C63 55 60 58 57 58H45V56H55C58 56 60 53 60 50ZM49 27V24C49 22 51 20 53 20 56 20 58 22 58 24V27C58 29 56 31 53 31 51 31 49 29 49 27ZM46 42L54 34C54 34 54 34 54 34 55 34 56 34 56 35 56 35 56 36 55 36L47 44H35C34 44 34 44 34 43 34 42 34 42 35 42H46ZM21 24C21 22 23 20 26 20 28 20 30 22 30 24V27C30 29 28 31 26 31 23 31 21 29 21 27V24ZM26 34C26 34 27 34 28 33V35C28 35 27 36 26 36 24 36 24 35 23 35V33C24 34 25 34 26 34ZM15 40C15 39 16 38 17 38L22 36C22 37 24 38 26 38 28 38 29 37 30 36L34 38C35 38 36 39 36 39H35C33 39 31 41 31 43 31 43 31 44 32 44H15V40ZM10 46H46V49H10V46ZM13 56H16V53H13V51H43V53H19V56H43V70H40L38 65H18L16 70H13V56ZM38 70H18L19 67H36L38 70Z"/></svg>