<svg xmlns="http://www.w3.org/2000/svg" width="72" height="72" viewBox="0 0 72 72" fill="black"><path d="M14 49C9 49 5 53 5 58 5 63 9 67 14 67 19 67 23 63 23 58 23 53 19 49 14 49ZM14 65C10 65 7 62 7 58 7 54 10 51 14 51 18 51 21 54 21 58 21 62 18 65 14 65Z"/><path d="M63 26V21C63 18 61 16 58 15V9C58 7 57 6 55 6H48C46 6 44 7 44 9V15C41 16 39 18 39 21V26H28V14C28 6 22 0 14 0 6 0 0 6 0 14V58C0 66 6 72 14 72H72V26H63ZM46 9C46 9 47 8 48 8H55C55 8 56 9 56 9V15H46V9ZM45 17H57C59 17 60 19 60 21H42C42 19 43 17 45 17ZM42 42H56V39H42V23H60V39H58V42H60V44C60 45 60 45 59 45H43C42 45 42 45 42 44V42ZM2 58C2 52 8 46 14 46 20 46 26 52 26 58 26 64 20 70 14 70 8 70 2 64 2 58ZM70 70H22C25 67 28 63 28 58V46H26V50C23 47 19 44 14 44 9 44 5 47 2 50V14C2 8 8 2 14 2 20 2 26 8 26 14V44H28V28H39V44C39 46 41 48 43 48H59C61 48 63 46 63 44V28H70V70Z"/><path d="M36 58V59H30V62H36V62L45 66H63V55H45L36 58ZM44 63L38 61V60L44 58V63ZM46 57H60V64H46V57Z"/></svg>