<svg xmlns="http://www.w3.org/2000/svg" width="72" height="72" viewBox="0 0 72 72" fill="black"><path d="M69 0H64C62 0 60 2 60 3V13 14 26C60 26 60 26 59 26H35C33 26 31 27 31 29 31 31 32 32 34 32V37H23C21 37 19 39 19 42 19 44 20 45 22 46L18 56H3C2 56 0 57 0 59 0 61 2 63 3 63H26V57L30 46H42V63H39C36 63 34 65 34 69V72H62V69C62 65 59 63 56 63H53V46H66C69 46 72 44 72 41V38 37 14 13 3C72 2 70 0 69 0ZM35 28H59C60 28 60 28 60 29 60 30 60 30 59 30H35C34 30 34 30 34 29 34 28 34 28 35 28ZM60 32V37H58V33H59C60 33 60 32 60 32ZM56 33V37H41V33H56ZM38 33V37H36V33H38ZM23 60H3C3 60 2 60 2 59 2 59 3 58 3 58H23V60ZM24 56H20L24 46H27L24 56ZM56 65C58 65 59 67 59 69V70H36V69C36 67 38 65 39 65H42 53 56ZM44 63V46H51V63H44ZM70 41C70 43 68 44 66 44H53 42 23C22 44 21 43 21 42 21 41 22 39 23 39H70V41ZM70 12H67V14H70V37H63V14H65V12H63V3C63 3 63 2 64 2H69C69 2 70 3 70 3V12Z"/><path d="M35 0H0V23H35V0ZM31 2L29 5H6L4 2H31ZM28 7V16H7V7H28ZM2 4L5 6V17L2 19V4ZM4 21L6 19H29L31 21H4ZM33 19L30 17V6L33 4V19Z"/></svg>