<svg xmlns="http://www.w3.org/2000/svg" width="72" height="72" viewBox="0 0 72 72" fill="black">
  <path d="M72 55.6C72 54 71.2 52.7 70 52 72.1 49.3 70.2 45.3 66.8 45.3H60V43.2C60 41 58.2 39.1 55.9 39.1H51.4C47.4 39.1 43.6 40.5 40.6 43.1 39.8 43.9 38.7 44.3 37.5 44.3L26.4 44.3C26.5 44.1 26.5 44 26.5 43.8 26.7 43.7 26.9 43.5 27 43.3 27.4 42.5 27.9 42 27.9 41.1 28.2 40.9 28.5 40.6 28.8 40.2 29.1 39.5 29.7 39 29.6 38 30 37.8 30.3 37.5 30.5 37.1 31 36.3 31.2 36.1 31.3 35.5 31.7 35.2 31.7 35 32.9 33.1 33.5 32.1 33.1 30.7 32.1 30.1L32.8 28.8 35.1 30.1C36 30.6 37.1 30.3 37.6 29.4 37.9 29 37.9 28.8 38 28.9L45.2 33C45.7 33.3 46.4 33.1 46.7 32.6 46.9 32.1 46.8 31.5 46.3 31.2L39.1 27.1C38.1 26.5 36.7 26.8 36.1 27.9L35.9 28.2 33 26.5C33 26.5 33 26.5 33 26.5 31.2 25.4 28.5 23.9 27.4 23.2L30 18.7C34.9 21.6 48.9 29.7 53.5 32.3L52.3 34.4C52.2 34.5 52.1 34.6 52 34.5L50.5 33.7C50 33.4 49.4 33.5 49.1 34.1 48.8 34.6 49 35.2 49.5 35.5L50.9 36.3C52.1 37 53.5 36.6 54.1 35.5L55.6 32.9C56 32.2 55.8 31.3 55.2 30.9 55.2 30.8 62 19 62.7 17.9 63.4 18.2 64.3 17.9 64.7 17.2L65.9 15.2C66.3 14.4 66 13.4 65.3 13L49.8 4C49.3 3.7 48.6 3.9 48.3 4.4 48 4.9 48.2 5.6 48.7 5.9L63.8 14.6 63.1 15.7C59.4 13.6 44.1 4.7 41.9 3.5L42.5 2.3 44.5 3.4C45 3.7 45.6 3.5 45.9 3 46.2 2.5 46 1.9 45.5 1.6L43.2 0.2C42.4-0.2 41.4 0 41 0.8L39.8 2.9C39.3 3.6 39.6 4.6 40.4 5L41.6 5.7 37.3 13.2 36.5 12.8C36 12.5 35.4 12.7 35.1 13.2L32.5 17.7 30.6 16.7C29.8 16.2 28.9 16.5 28.4 17.2L25.5 22.4C24.9 23.3 25.2 24.4 26.1 25L27.7 25.9 27 27.1C26 26.6 24.6 27 24 28 23 30 22.8 30 22.7 30.5 22.3 30.9 22.2 31.2 21.7 32 21.5 32.4 21.4 32.8 21.4 33.3 21 33.5 20.7 33.7 20.5 34.1 20.1 34.9 19.6 35.3 19.6 36.3 19.3 36.5 18.9 36.8 18.7 37.2 18.3 38 18 38.3 17.9 38.9 17.5 39.1 17.6 39.3 16.4 41.2 15.8 42.3 16.1 43.6 17.1 44.2L17.1 44.3H1.1C0.5 44.3 0 44.7 0 45.3V65.8C0 66.4 0.5 66.8 1.1 66.8L13.2 66.8C13.8 66.8 14.3 66.4 14.3 65.8 14.3 65.2 13.8 64.7 13.2 64.7L2.1 64.7V46.4L16.5 46.4C16.5 46.4 16.6 46.5 16.6 46.6 17.1 47.1 16.6 47.8 16 47.7 15.5 47.6 15.1 47.8 14.8 48.2 14.5 48.9 12.2 51.6 12.9 55.9 13 56.5 13.2 57 13.7 57.4L19 62.6C22.1 65.8 27.6 63.7 27.8 59.2 27.9 57.9 27.4 56.6 26.6 55.6 29 52.7 27.7 48.4 24.2 47.2 24.6 47.1 25 46.8 25.2 46.4L37.5 46.4C39.2 46.4 40.8 45.8 42 44.7 44.6 42.5 47.9 41.2 51.4 41.2H55.9C57 41.2 57.9 42.1 57.9 43.2V53.6C57.9 54.8 57 55.7 55.9 55.7 54.8 55.7 53.9 54.8 53.9 53.6V46.8C53.9 46.2 53.4 45.7 52.8 45.7 52.2 45.7 51.8 46.2 51.8 46.8 51.8 48.5 50.4 49.9 48.7 49.9 47 49.9 45.6 48.5 45.6 46.8 45.6 46.2 45.1 45.7 44.5 45.7 44 45.7 43.5 46.2 43.5 46.8 43.5 49.7 45.8 52 48.7 52 49.8 52 50.9 51.6 51.8 51V53.6C51.8 57.5 56.6 59.3 59.1 56.3 59.2 57 59.6 57.7 60 58.2 58.2 59.5 57.6 61.9 58.7 63.8 55.8 64.1 54.2 67.3 55.6 69.9H51.4C47.9 69.9 44.6 68.6 42 66.4 40.8 65.3 39.2 64.7 37.5 64.7L18.1 64.7C17.5 64.7 17.1 65.2 17.1 65.8 17.1 66.4 17.5 66.8 18.1 66.8L37.5 66.8C38.7 66.8 39.8 67.2 40.6 68 43.6 70.6 47.4 72 51.4 72H63.9C66.2 72 68 70.1 68 67.9 68 67.1 67.8 66.4 67.5 65.8 69.5 65.6 71.1 63.8 71.1 61.7 71.1 60.7 70.7 59.7 70.1 59 71.2 58.3 72 57 72 55.6ZM41.6 19.3L45.8 11.9C47.7 13 49.8 14.2 51.6 15.2L50.9 16.5 48 14.8C47.5 14.5 46.9 14.7 46.6 15.2 46.3 15.7 46.4 16.3 47 16.6L49.8 18.3C49.6 18.7 49.4 19.1 49.1 19.5L46.2 17.9C45.7 17.6 45.1 17.8 44.8 18.3 44.5 18.8 44.7 19.4 45.2 19.7L48.1 21.4 47.4 22.6C45.5 21.5 43.4 20.3 41.6 19.3ZM54.6 21L57.5 22.7 56.7 23.9 53.8 22.3C53.3 22 52.7 22.1 52.4 22.7 52.1 23.2 52.3 23.8 52.8 24.1L55.7 25.8 55 27C53.1 25.9 51 24.7 49.2 23.7 50.6 21.2 52.2 18.4 53.4 16.3 54.3 16.8 58.4 19.2 59.2 19.6L58.5 20.9 55.6 19.2C55.1 18.9 54.5 19.1 54.2 19.6 53.9 20.1 54.1 20.7 54.6 21ZM47.6 26.5L48.1 25.5C50 26.5 52.1 27.8 53.9 28.8L53.4 29.8C52.7 29.4 48 26.7 47.6 26.5ZM60.8 16.8L60.3 17.8 54.5 14.5C54.5 14.5 55.1 13.5 55 13.5 56.6 14.4 58.1 15.3 60.8 16.8ZM53.2 12.5L52.7 13.4C50.8 12.4 48.7 11.1 46.9 10.1L47.4 9.1C48.3 9.6 51.1 11.2 53.2 12.5ZM40.5 21.1L46.3 24.4 45.7 25.4 40 22.1 40.5 21.1ZM43.4 6.8L45.6 8.1C45.3 8.6 46.2 7 38.1 21L37.6 20.7 40.2 16.1C40.5 15.6 40.3 15 39.8 14.7L39.1 14.2 43.4 6.8ZM36.4 15.1L37.8 16 35.7 19.6 34.3 18.8 36.4 15.1ZM20.8 38.2L25.7 41C25.7 41.1 25.8 41.2 25.7 41.2L25.2 42.2C25.1 42.3 25 42.3 25 42.3L20.1 39.4C20 39.4 20 39.3 20 39.2L20.6 38.3C20.6 38.2 20.7 38.1 20.8 38.2ZM21.8 36.2L22.3 35.2C22.4 35.1 22.5 35.1 22.5 35.1L27.4 38C27.5 38 27.5 38.1 27.5 38.2L26.9 39.1C26.9 39.2 26.8 39.2 26.7 39.2L21.8 36.4C21.8 36.3 21.7 36.2 21.8 36.2ZM23.5 33.1L24.1 32.1C24.1 32.1 24.2 32 24.3 32.1L29.2 34.9C29.3 34.9 29.3 35 29.3 35.1L28.7 36.1C28.7 36.2 28.6 36.2 28.5 36.1L23.6 33.3C23.5 33.3 23.5 33.2 23.5 33.1ZM18.3 42.5C18.2 42.4 18.2 42.4 18.2 42.3L18.9 41.2C26.1 45.4 21.3 42.6 24 44.2L23.4 45.3C23.4 45.3 23.3 45.4 23.2 45.3 17.1 41.8 24.5 46.1 18.3 42.5ZM30.3 29L30.3 29 28.9 28.2 29.6 26.9 31 27.8 30.3 29ZM25.9 29.1C25.9 29 26 29 26.1 29 27.8 30 29.3 30.8 31 31.8 31 31.9 31.1 32 31 32L30.4 33.1C25 30 26.4 30.8 25.2 30.2L25.9 29.1ZM16.3 49.8C18.3 49.7 19.5 47.6 18.6 45.8L18.9 45.3 20.4 46.2 17.4 51.5C16.7 52.5 15.9 53.4 14.9 54.1 15 51.7 16.1 50.3 16.3 49.8ZM24.6 54.6C23.9 55.1 23.9 56 24.6 56.5 25.3 57.2 25.8 58.1 25.7 59.1 25.6 61.8 22.3 63 20.4 61.1 20.4 61.1 20.4 61.1 20.4 61.1L15.4 56.2C17 55.3 18.3 54.1 19.2 52.5L20.8 49.7C21.4 49.2 22.2 49 22.9 49.1 25.6 49.3 26.7 52.8 24.6 54.6ZM63.2 53.5H67.9C69 53.5 69.9 54.4 69.9 55.6 69.9 56.7 69 57.6 67.9 57.6H63.2C62 57.6 61.1 56.7 61.1 55.6 61.1 54.4 62 53.5 63.2 53.5ZM66.8 47.4C67.9 47.4 68.8 48.3 68.8 49.4 68.8 50.5 67.9 51.4 66.8 51.4H62.1C60.9 51.4 60 50.5 60 49.4 60 48.3 60.9 47.4 62.1 47.4H66.8ZM63.9 69.9H59.2C58.1 69.9 57.2 69 57.2 67.9 57.2 66.7 58.1 65.8 59.2 65.8H63.9C65 65.8 65.9 66.7 65.9 67.9 65.9 69 65 69.9 63.9 69.9ZM67 63.7H62.3C61.2 63.7 60.3 62.8 60.3 61.7 60.3 60.6 61.2 59.7 62.3 59.7H67C68.1 59.7 69 60.6 69 61.7 69 62.8 68.1 63.7 67 63.7Z"/>
</svg>
